<svg width="150" height="27" viewBox="0 0 150 27" fill="none" xmlns="http://www.w3.org/2000/svg">
<path d="M139.678 17.5142L140.795 19.9166C140.795 19.9166 145.817 20.983 145.817 23.5194C145.817 25.3215 143.583 25.3215 143.583 25.3215H137.633L134.703 23.6939" stroke="#E53453" stroke-width="1.95312" stroke-linecap="round" stroke-linejoin="round"/>
<path d="M132.983 17.5142L131.867 19.9166C131.867 19.9166 126.844 20.983 126.844 23.5194C126.844 25.3215 129.078 25.3215 129.078 25.3215H131.773L134.703 23.6939L138.284 21.4153" stroke="#E53453" stroke-width="1.95312" stroke-linecap="round" stroke-linejoin="round"/>
<path d="M124.612 18.7147C124.612 18.7147 127.402 18.1145 129.077 17.5142C130.75 9.10536 135.771 9.70562 136.331 9.70562C136.889 9.70562 141.911 9.10536 143.584 17.5142C145.259 18.1132 148.049 18.7147 148.049 18.7147M136.331 7.09234C137.021 7.09234 137.684 6.81797 138.172 6.32959C138.66 5.84122 138.935 5.17884 138.935 4.48817C138.935 3.7975 138.66 3.13512 138.172 2.64675C137.684 2.15837 137.021 1.884 136.331 1.884C135.64 1.884 134.978 2.15837 134.489 2.64675C134.001 3.13512 133.726 3.7975 133.726 4.48817C133.726 5.17884 134.001 5.84122 134.489 6.32959C134.978 6.81797 135.64 7.09234 136.331 7.09234Z" stroke="#E53453" stroke-width="1.95312" stroke-linecap="round" stroke-linejoin="round"/>
<path d="M2.92311 25.896C1.68599 25.896 0.683105 24.8931 0.683105 23.656V2.95752C0.683105 2.46984 1.30989 2.27068 1.59139 2.6689L13.8031 19.944L11.8191 19.496L24.0342 2.63324C24.3185 2.24069 24.9391 2.44184 24.9391 2.92656V23.576C24.9391 24.8573 23.9004 25.896 22.6191 25.896V25.896C21.3378 25.896 20.2991 24.8573 20.2991 23.576V11.848L20.5871 14.248L12.6191 25.576H12.5551L4.36311 14.248L5.16311 12.04V23.656C5.16311 24.8931 4.16022 25.896 2.92311 25.896V25.896Z" fill="#E53453"/>
<path d="M35.1869 17.192C35.1869 17.9387 35.4109 18.6533 35.8589 19.336C36.3069 20.0187 36.8935 20.5733 37.6189 21C38.3655 21.4267 39.1762 21.64 40.0509 21.64C41.0109 21.64 41.8642 21.4267 42.6109 21C43.3575 20.5733 43.9442 20.0187 44.3709 19.336C44.8189 18.6533 45.0429 17.9387 45.0429 17.192V4.632C45.0429 3.36838 46.0672 2.344 47.3309 2.344V2.344C48.5945 2.344 49.6189 3.36837 49.6189 4.632V17.288C49.6189 19.016 49.1922 20.552 48.3389 21.896C47.4855 23.2187 46.3335 24.264 44.8829 25.032C43.4322 25.7787 41.8215 26.152 40.0509 26.152C38.3015 26.152 36.7015 25.7787 35.2509 25.032C33.8215 24.264 32.6802 23.2187 31.8269 21.896C30.9735 20.552 30.5469 19.016 30.5469 17.288V4.664C30.5469 3.3827 31.5856 2.344 32.8669 2.344V2.344C34.1482 2.344 35.1869 3.3827 35.1869 4.664V17.192Z" fill="#E53453"/>
<path d="M57.7144 25.896C56.3336 25.896 55.2144 24.7767 55.2144 23.396V4.844C55.2144 3.46329 56.3336 2.344 57.7144 2.344H62.2544C64.6224 2.344 66.6384 2.696 68.3024 3.4C69.9664 4.104 71.2997 5.04267 72.3024 6.216C73.3264 7.38934 74.073 8.70134 74.5424 10.152C75.0117 11.6027 75.2464 13.064 75.2464 14.536C75.2464 16.2853 74.9264 17.864 74.2864 19.272C73.6677 20.6587 72.8144 21.8533 71.7264 22.856C70.6384 23.8373 69.3797 24.5947 67.9504 25.128C66.521 25.64 65.0064 25.896 63.4064 25.896H57.7144ZM59.8544 18.916C59.8544 20.2967 60.9736 21.416 62.3544 21.416H62.6064C63.7797 21.416 64.8464 21.2667 65.8064 20.968C66.7664 20.648 67.5877 20.1893 68.2704 19.592C68.9744 18.9947 69.5077 18.248 69.8704 17.352C70.2544 16.4347 70.4464 15.3893 70.4464 14.216C70.4464 12.68 70.1904 11.432 69.6784 10.472C69.1877 9.49067 68.569 8.73334 67.8224 8.2C67.097 7.66667 66.3504 7.304 65.5824 7.112C64.8144 6.89867 64.1637 6.792 63.6304 6.792H62.3544C60.9736 6.792 59.8544 7.91129 59.8544 9.292V18.916Z" fill="#E53453"/>
<path d="M87.0379 2.344C88.5099 2.344 89.8219 2.536 90.9739 2.92C92.1259 3.28267 93.0859 3.816 93.8539 4.52C94.6432 5.20267 95.2405 6.03467 95.6459 7.016C96.0512 7.976 96.2539 9.064 96.2539 10.28C96.2539 11.24 96.1045 12.2 95.8059 13.16C95.5285 14.12 95.0592 14.9947 94.3979 15.784C93.7579 16.5733 92.9045 17.2133 91.8379 17.704C90.7712 18.1733 89.4485 18.408 87.8699 18.408H84.5419V23.576C84.5419 24.8573 83.5032 25.896 82.2219 25.896V25.896C80.9406 25.896 79.9019 24.8573 79.9019 23.576V4.844C79.9019 3.46329 81.0211 2.344 82.4019 2.344H87.0379ZM87.8379 13.928C88.5419 13.928 89.1285 13.8107 89.5979 13.576C90.0672 13.3413 90.4299 13.0427 90.6859 12.68C90.9632 12.3173 91.1552 11.944 91.2619 11.56C91.3899 11.1547 91.4539 10.7813 91.4539 10.44C91.4539 10.184 91.4112 9.864 91.3259 9.48C91.2619 9.07467 91.1125 8.66934 90.8779 8.264C90.6432 7.85867 90.2805 7.51734 89.7899 7.24C89.3205 6.96267 88.6805 6.824 87.8699 6.824H84.5419V13.928H87.8379ZM92.1899 16.808L95.7576 22.3752C96.733 23.8973 95.64 25.896 93.8322 25.896V25.896C93.0662 25.896 92.3511 25.5125 91.9273 24.8745L86.6539 16.936L92.1899 16.808Z" fill="#E53453"/>
<path d="M102.371 25.896C100.869 25.896 99.8611 24.3529 100.465 22.9772L109.478 2.45829C109.653 2.05972 110.218 2.05972 110.393 2.45829L119.191 22.4886C119.896 24.0945 118.72 25.896 116.966 25.896V25.896C115.968 25.896 115.071 25.2855 114.705 24.3568L108.527 8.68L111.887 6.376L104.293 24.6145C103.97 25.3905 103.212 25.896 102.371 25.896V25.896ZM106.447 17.384H113.519L115.151 21.288H105.007L106.447 17.384Z" fill="#E53453"/>
</svg>
